<svg width="80" height="80" viewBox="0 0 80 80" fill="none" xmlns="http://www.w3.org/2000/svg">
<path d="M30.5105 18.0279C34.7327 10.4537 36.8437 6.6666 40 6.6666C43.1563 6.6666 45.2673 10.4537 49.4893 18.0278L50.5817 19.9874C51.7817 22.1397 52.3813 23.2159 53.317 23.926C54.2523 24.636 55.417 24.8996 57.747 25.4268L59.8683 25.9067C68.067 27.7618 72.1667 28.6893 73.142 31.8257C74.1173 34.9619 71.3227 38.2303 65.733 44.7663L64.287 46.4573C62.6987 48.3146 61.9043 49.2433 61.547 50.3923C61.19 51.5413 61.31 52.7803 61.55 55.2586L61.7687 57.5146C62.6137 66.2353 63.0363 70.5956 60.483 72.5339C57.9293 74.4723 54.091 72.7049 46.4143 69.1706L44.4283 68.2559C42.247 67.2516 41.1563 66.7493 40 66.7493C38.8437 66.7493 37.753 67.2516 35.5717 68.2559L33.5857 69.1706C25.9089 72.7049 22.0706 74.4723 19.5172 72.5339C16.9637 70.5956 17.3863 66.2353 18.2313 57.5146L18.4499 55.2586C18.6901 52.7803 18.8102 51.5413 18.4529 50.3923C18.0956 49.2433 17.3014 48.3146 15.7131 46.4573L14.267 44.7663C8.6775 38.2303 5.88273 34.9619 6.85806 31.8257C7.8334 28.6893 11.9329 27.7618 20.1318 25.9067L22.253 25.4268C24.5828 24.8996 25.7478 24.636 26.6831 23.926C27.6185 23.2159 28.2184 22.1397 29.4182 19.9874L30.5105 18.0279Z" stroke="white" stroke-width="5"/>
</svg>
