<svg width="80" height="80" viewBox="0 0 80 80" fill="none" xmlns="http://www.w3.org/2000/svg">
<path d="M30.5105 18.0279C34.7327 10.4537 36.8437 6.6666 40 6.6666C43.1563 6.6666 45.2673 10.4537 49.4893 18.0278L50.5817 19.9874L50.584 19.9916C51.7825 22.1411 52.3819 23.2164 53.317 23.926C54.2523 24.636 55.417 24.8996 57.747 25.4268L59.8683 25.9067C68.067 27.7618 72.1667 28.6893 73.142 31.8257C74.1173 34.9619 71.3227 38.2303 65.733 44.7663L64.287 46.4573L64.2857 46.4588C62.6982 48.3151 61.9042 49.2436 61.547 50.3923C61.19 51.5413 61.31 52.7803 61.55 55.2586L61.7687 57.5146L61.7688 57.5162C62.6137 66.2358 63.0362 70.5957 60.483 72.5339C57.9295 74.4722 54.0914 72.7051 46.4155 69.1712L46.4143 69.1706L44.4283 68.2559L44.4262 68.255C42.2463 67.2513 41.156 66.7493 40 66.7493C38.844 66.7493 37.7537 67.2513 35.5738 68.255L35.5717 68.2559L33.5857 69.1706L33.5843 69.1712C25.9085 72.7051 22.0704 74.4722 19.5172 72.5339C16.9637 70.5956 17.3863 66.2353 18.2313 57.5146L18.4499 55.2586C18.6901 52.7803 18.8102 51.5413 18.4529 50.3923C18.0956 49.2433 17.3014 48.3146 15.7131 46.4573L14.267 44.7663C8.67749 38.2303 5.88272 34.9619 6.85806 31.8257C7.83339 28.6893 11.9329 27.7618 20.1318 25.9067L22.253 25.4268C24.5828 24.8996 25.7478 24.636 26.6831 23.926C27.6185 23.2159 28.2184 22.1397 29.4182 19.9874L30.5105 18.0279Z" fill="#CDEB14"/>
<path d="M50.5817 19.9874L49.4893 18.0278C45.2673 10.4537 43.1563 6.6666 40 6.6666C36.8437 6.6666 34.7327 10.4537 30.5105 18.0279L29.4182 19.9874C28.2184 22.1397 27.6185 23.2159 26.6831 23.926C25.7478 24.636 24.5828 24.8996 22.253 25.4268L20.1318 25.9067C11.9329 27.7618 7.83339 28.6893 6.85806 31.8257C5.88272 34.9619 8.67749 38.2303 14.267 44.7663L15.7131 46.4573C17.3014 48.3146 18.0956 49.2433 18.4529 50.3923C18.8102 51.5413 18.6901 52.7803 18.4499 55.2586L18.2313 57.5146C17.3863 66.2353 16.9637 70.5956 19.5172 72.5339C22.0704 74.4722 25.9085 72.7051 33.5843 69.1712L33.5857 69.1706L35.5717 68.2559L35.5738 68.255C37.7537 67.2513 38.844 66.7493 40 66.7493C41.156 66.7493 42.2463 67.2513 44.4262 68.255L44.4283 68.2559L46.4143 69.1706L46.4155 69.1712C54.0914 72.7051 57.9295 74.4722 60.483 72.5339C63.0362 70.5957 62.6137 66.2358 61.7688 57.5162L61.7687 57.5146L61.55 55.2586C61.31 52.7803 61.19 51.5413 61.547 50.3923C61.9042 49.2436 62.6982 48.3151 64.2857 46.4588L64.287 46.4573L65.733 44.7663C71.3227 38.2303 74.1173 34.9619 73.142 31.8257C72.1667 28.6893 68.067 27.7618 59.8683 25.9067L57.747 25.4268C55.417 24.8996 54.2523 24.636 53.317 23.926C52.3819 23.2164 51.7825 22.1411 50.584 19.9916M50.5817 19.9874L50.584 19.9916M50.5817 19.9874C50.5825 19.9888 50.5832 19.9902 50.584 19.9916" stroke="white" stroke-width="5"/>
</svg>
