<svg width="480" height="80" viewBox="0 0 480 80" fill="none" xmlns="http://www.w3.org/2000/svg">
<path d="M30.5105 18.0279C34.7327 10.4537 36.8437 6.6666 40 6.6666C43.1563 6.6666 45.2673 10.4537 49.4893 18.0278L50.5817 19.9874L50.584 19.9916C51.7825 22.1411 52.3819 23.2164 53.317 23.926C54.2523 24.636 55.417 24.8996 57.747 25.4268L59.8683 25.9067C68.067 27.7618 72.1667 28.6893 73.142 31.8257C74.1173 34.9619 71.3227 38.2303 65.733 44.7663L64.287 46.4573L64.2857 46.4588C62.6982 48.3151 61.9042 49.2436 61.547 50.3923C61.19 51.5413 61.31 52.7803 61.55 55.2586L61.7687 57.5146L61.7688 57.5162C62.6137 66.2358 63.0362 70.5957 60.483 72.5339C57.9295 74.4722 54.0914 72.7051 46.4155 69.1712L46.4143 69.1706L44.4283 68.2559L44.4262 68.255C42.2463 67.2513 41.156 66.7493 40 66.7493C38.844 66.7493 37.7537 67.2513 35.5738 68.255L35.5717 68.2559L33.5857 69.1706L33.5843 69.1712C25.9085 72.7051 22.0704 74.4722 19.5172 72.5339C16.9637 70.5956 17.3863 66.2353 18.2313 57.5146L18.4499 55.2586C18.6901 52.7803 18.8102 51.5413 18.4529 50.3923C18.0956 49.2433 17.3014 48.3146 15.7131 46.4573L14.267 44.7663C8.67749 38.2303 5.88272 34.9619 6.85806 31.8257C7.83339 28.6893 11.9329 27.7618 20.1318 25.9067L22.253 25.4268C24.5828 24.8996 25.7478 24.636 26.6831 23.926C27.6185 23.2159 28.2184 22.1397 29.4182 19.9874L30.5105 18.0279Z" fill="#CDEB14"/>
<path d="M50.5817 19.9874L49.4893 18.0278C45.2673 10.4537 43.1563 6.6666 40 6.6666C36.8437 6.6666 34.7327 10.4537 30.5105 18.0279L29.4182 19.9874C28.2184 22.1397 27.6185 23.2159 26.6831 23.926C25.7478 24.636 24.5828 24.8996 22.253 25.4268L20.1318 25.9067C11.9329 27.7618 7.83339 28.6893 6.85806 31.8257C5.88272 34.9619 8.67749 38.2303 14.267 44.7663L15.7131 46.4573C17.3014 48.3146 18.0956 49.2433 18.4529 50.3923C18.8102 51.5413 18.6901 52.7803 18.4499 55.2586L18.2313 57.5146C17.3863 66.2353 16.9637 70.5956 19.5172 72.5339C22.0704 74.4722 25.9085 72.7051 33.5843 69.1712L33.5857 69.1706L35.5717 68.2559L35.5738 68.255C37.7537 67.2513 38.844 66.7493 40 66.7493C41.156 66.7493 42.2463 67.2513 44.4262 68.255L44.4283 68.2559L46.4143 69.1706L46.4155 69.1712C54.0914 72.7051 57.9295 74.4722 60.483 72.5339C63.0362 70.5957 62.6137 66.2358 61.7688 57.5162L61.7687 57.5146L61.55 55.2586C61.31 52.7803 61.19 51.5413 61.547 50.3923C61.9042 49.2436 62.6982 48.3151 64.2857 46.4588L64.287 46.4573L65.733 44.7663C71.3227 38.2303 74.1173 34.9619 73.142 31.8257C72.1667 28.6893 68.067 27.7618 59.8683 25.9067L57.747 25.4268C55.417 24.8996 54.2523 24.636 53.317 23.926C52.3819 23.2164 51.7825 22.1411 50.584 19.9916M50.5817 19.9874L50.584 19.9916M50.5817 19.9874C50.5825 19.9888 50.5832 19.9902 50.584 19.9916" stroke="white" stroke-width="5"/>
<path d="M130.511 18.0279C134.733 10.4537 136.844 6.6666 140 6.6666C143.156 6.6666 145.267 10.4537 149.489 18.0278L150.582 19.9874L150.584 19.9916C151.782 22.1411 152.382 23.2164 153.317 23.926C154.252 24.636 155.417 24.8996 157.747 25.4268L159.868 25.9067C168.067 27.7618 172.167 28.6893 173.142 31.8257C174.117 34.9619 171.323 38.2303 165.733 44.7663L164.287 46.4573L164.286 46.4588C162.698 48.3151 161.904 49.2436 161.547 50.3923C161.19 51.5413 161.31 52.7803 161.55 55.2586L161.769 57.5146L161.769 57.5162C162.614 66.2358 163.036 70.5957 160.483 72.5339C157.929 74.4722 154.091 72.7051 146.416 69.1712L146.414 69.1706L144.428 68.2559L144.426 68.255C142.246 67.2513 141.156 66.7493 140 66.7493C138.844 66.7493 137.754 67.2513 135.574 68.255L135.572 68.2559L133.586 69.1706L133.584 69.1712C125.908 72.7051 122.07 74.4722 119.517 72.5339C116.964 70.5956 117.386 66.2353 118.231 57.5146L118.45 55.2586C118.69 52.7803 118.81 51.5413 118.453 50.3923C118.096 49.2433 117.301 48.3146 115.713 46.4573L114.267 44.7663C108.677 38.2303 105.883 34.9619 106.858 31.8257C107.833 28.6893 111.933 27.7618 120.132 25.9067L122.253 25.4268C124.583 24.8996 125.748 24.636 126.683 23.926C127.618 23.2159 128.218 22.1397 129.418 19.9874L130.511 18.0279Z" fill="#CDEB14"/>
<path d="M150.582 19.9874L149.489 18.0278C145.267 10.4537 143.156 6.6666 140 6.6666C136.844 6.6666 134.733 10.4537 130.511 18.0279L129.418 19.9874C128.218 22.1397 127.618 23.2159 126.683 23.926C125.748 24.636 124.583 24.8996 122.253 25.4268L120.132 25.9067C111.933 27.7618 107.833 28.6893 106.858 31.8257C105.883 34.9619 108.677 38.2303 114.267 44.7663L115.713 46.4573C117.301 48.3146 118.096 49.2433 118.453 50.3923C118.81 51.5413 118.69 52.7803 118.45 55.2586L118.231 57.5146C117.386 66.2353 116.964 70.5956 119.517 72.5339C122.07 74.4722 125.908 72.7051 133.584 69.1712L133.586 69.1706L135.572 68.2559L135.574 68.255C137.754 67.2513 138.844 66.7493 140 66.7493C141.156 66.7493 142.246 67.2513 144.426 68.255L144.428 68.2559L146.414 69.1706L146.416 69.1712C154.091 72.7051 157.929 74.4722 160.483 72.5339C163.036 70.5957 162.614 66.2358 161.769 57.5162L161.769 57.5146L161.55 55.2586C161.31 52.7803 161.19 51.5413 161.547 50.3923C161.904 49.2436 162.698 48.3151 164.286 46.4588L164.287 46.4573L165.733 44.7663C171.323 38.2303 174.117 34.9619 173.142 31.8257C172.167 28.6893 168.067 27.7618 159.868 25.9067L157.747 25.4268C155.417 24.8996 154.252 24.636 153.317 23.926C152.382 23.2164 151.782 22.1411 150.584 19.9916M150.582 19.9874L150.584 19.9916M150.582 19.9874C150.582 19.9888 150.583 19.9902 150.584 19.9916" stroke="white" stroke-width="5"/>
<path d="M230.511 18.0279C234.733 10.4537 236.844 6.6666 240 6.6666C243.156 6.6666 245.267 10.4537 249.489 18.0278L250.582 19.9874L250.584 19.9916C251.782 22.1411 252.382 23.2164 253.317 23.926C254.252 24.636 255.417 24.8996 257.747 25.4268L259.868 25.9067C268.067 27.7618 272.167 28.6893 273.142 31.8257C274.117 34.9619 271.323 38.2303 265.733 44.7663L264.287 46.4573L264.286 46.4588C262.698 48.3151 261.904 49.2436 261.547 50.3923C261.19 51.5413 261.31 52.7803 261.55 55.2586L261.769 57.5146L261.769 57.5162C262.614 66.2358 263.036 70.5957 260.483 72.5339C257.929 74.4722 254.091 72.7051 246.416 69.1712L246.414 69.1706L244.428 68.2559L244.426 68.255C242.246 67.2513 241.156 66.7493 240 66.7493C238.844 66.7493 237.754 67.2513 235.574 68.255L235.572 68.2559L233.586 69.1706L233.584 69.1712C225.908 72.7051 222.07 74.4722 219.517 72.5339C216.964 70.5956 217.386 66.2353 218.231 57.5146L218.45 55.2586C218.69 52.7803 218.81 51.5413 218.453 50.3923C218.096 49.2433 217.301 48.3146 215.713 46.4573L214.267 44.7663C208.677 38.2303 205.883 34.9619 206.858 31.8257C207.833 28.6893 211.933 27.7618 220.132 25.9067L222.253 25.4268C224.583 24.8996 225.748 24.636 226.683 23.926C227.618 23.2159 228.218 22.1397 229.418 19.9874L230.511 18.0279Z" fill="#CDEB14"/>
<path d="M250.582 19.9874L249.489 18.0278C245.267 10.4537 243.156 6.6666 240 6.6666C236.844 6.6666 234.733 10.4537 230.511 18.0279L229.418 19.9874C228.218 22.1397 227.618 23.2159 226.683 23.926C225.748 24.636 224.583 24.8996 222.253 25.4268L220.132 25.9067C211.933 27.7618 207.833 28.6893 206.858 31.8257C205.883 34.9619 208.677 38.2303 214.267 44.7663L215.713 46.4573C217.301 48.3146 218.096 49.2433 218.453 50.3923C218.81 51.5413 218.69 52.7803 218.45 55.2586L218.231 57.5146C217.386 66.2353 216.964 70.5956 219.517 72.5339C222.07 74.4722 225.908 72.7051 233.584 69.1712L233.586 69.1706L235.572 68.2559L235.574 68.255C237.754 67.2513 238.844 66.7493 240 66.7493C241.156 66.7493 242.246 67.2513 244.426 68.255L244.428 68.2559L246.414 69.1706L246.416 69.1712C254.091 72.7051 257.929 74.4722 260.483 72.5339C263.036 70.5957 262.614 66.2358 261.769 57.5162L261.769 57.5146L261.55 55.2586C261.31 52.7803 261.19 51.5413 261.547 50.3923C261.904 49.2436 262.698 48.3151 264.286 46.4588L264.287 46.4573L265.733 44.7663C271.323 38.2303 274.117 34.9619 273.142 31.8257C272.167 28.6893 268.067 27.7618 259.868 25.9067L257.747 25.4268C255.417 24.8996 254.252 24.636 253.317 23.926C252.382 23.2164 251.782 22.1411 250.584 19.9916M250.582 19.9874L250.584 19.9916M250.582 19.9874C250.582 19.9888 250.583 19.9902 250.584 19.9916" stroke="white" stroke-width="5"/>
<path d="M330.511 18.0279C334.733 10.4537 336.844 6.6666 340 6.6666C343.156 6.6666 345.267 10.4537 349.489 18.0278L350.582 19.9874L350.584 19.9916C351.782 22.1411 352.382 23.2164 353.317 23.926C354.252 24.636 355.417 24.8996 357.747 25.4268L359.868 25.9067C368.067 27.7618 372.167 28.6893 373.142 31.8257C374.117 34.9619 371.323 38.2303 365.733 44.7663L364.287 46.4573L364.286 46.4588C362.698 48.3151 361.904 49.2436 361.547 50.3923C361.19 51.5413 361.31 52.7803 361.55 55.2586L361.769 57.5146L361.769 57.5162C362.614 66.2358 363.036 70.5957 360.483 72.5339C357.929 74.4722 354.091 72.7051 346.416 69.1712L346.414 69.1706L344.428 68.2559L344.426 68.255C342.246 67.2513 341.156 66.7493 340 66.7493C338.844 66.7493 337.754 67.2513 335.574 68.255L335.572 68.2559L333.586 69.1706L333.584 69.1712C325.908 72.7051 322.07 74.4722 319.517 72.5339C316.964 70.5956 317.386 66.2353 318.231 57.5146L318.45 55.2586C318.69 52.7803 318.81 51.5413 318.453 50.3923C318.096 49.2433 317.301 48.3146 315.713 46.4573L314.267 44.7663C308.677 38.2303 305.883 34.9619 306.858 31.8257C307.833 28.6893 311.933 27.7618 320.132 25.9067L322.253 25.4268C324.583 24.8996 325.748 24.636 326.683 23.926C327.618 23.2159 328.218 22.1397 329.418 19.9874L330.511 18.0279Z" fill="#CDEB14"/>
<path d="M350.582 19.9874L349.489 18.0278C345.267 10.4537 343.156 6.6666 340 6.6666C336.844 6.6666 334.733 10.4537 330.511 18.0279L329.418 19.9874C328.218 22.1397 327.618 23.2159 326.683 23.926C325.748 24.636 324.583 24.8996 322.253 25.4268L320.132 25.9067C311.933 27.7618 307.833 28.6893 306.858 31.8257C305.883 34.9619 308.677 38.2303 314.267 44.7663L315.713 46.4573C317.301 48.3146 318.096 49.2433 318.453 50.3923C318.81 51.5413 318.69 52.7803 318.45 55.2586L318.231 57.5146C317.386 66.2353 316.964 70.5956 319.517 72.5339C322.07 74.4722 325.908 72.7051 333.584 69.1712L333.586 69.1706L335.572 68.2559L335.574 68.255C337.754 67.2513 338.844 66.7493 340 66.7493C341.156 66.7493 342.246 67.2513 344.426 68.255L344.428 68.2559L346.414 69.1706L346.416 69.1712C354.091 72.7051 357.929 74.4722 360.483 72.5339C363.036 70.5957 362.614 66.2358 361.769 57.5162L361.769 57.5146L361.55 55.2586C361.31 52.7803 361.19 51.5413 361.547 50.3923C361.904 49.2436 362.698 48.3151 364.286 46.4588L364.287 46.4573L365.733 44.7663C371.323 38.2303 374.117 34.9619 373.142 31.8257C372.167 28.6893 368.067 27.7618 359.868 25.9067L357.747 25.4268C355.417 24.8996 354.252 24.636 353.317 23.926C352.382 23.2164 351.782 22.1411 350.584 19.9916M350.582 19.9874L350.584 19.9916M350.582 19.9874C350.582 19.9888 350.583 19.9902 350.584 19.9916" stroke="white" stroke-width="5"/>
<path d="M430.511 18.0279C434.733 10.4537 436.844 6.6666 440 6.6666C443.156 6.6666 445.267 10.4537 449.489 18.0278L450.582 19.9874C451.782 22.1397 452.381 23.2159 453.317 23.926C454.252 24.636 455.417 24.8996 457.747 25.4268L459.868 25.9067C468.067 27.7618 472.167 28.6893 473.142 31.8257C474.117 34.9619 471.323 38.2303 465.733 44.7663L464.287 46.4573C462.699 48.3146 461.904 49.2433 461.547 50.3923C461.19 51.5413 461.31 52.7803 461.55 55.2586L461.769 57.5146C462.614 66.2353 463.036 70.5956 460.483 72.5339C457.929 74.4723 454.091 72.7049 446.414 69.1706L444.428 68.2559C442.247 67.2516 441.156 66.7493 440 66.7493C438.844 66.7493 437.753 67.2516 435.572 68.2559L433.586 69.1706C425.909 72.7049 422.071 74.4723 419.517 72.5339C416.964 70.5956 417.386 66.2353 418.231 57.5146L418.45 55.2586C418.69 52.7803 418.81 51.5413 418.453 50.3923C418.096 49.2433 417.301 48.3146 415.713 46.4573L414.267 44.7663C408.677 38.2303 405.883 34.9619 406.858 31.8257C407.833 28.6893 411.933 27.7618 420.132 25.9067L422.253 25.4268C424.583 24.8996 425.748 24.636 426.683 23.926C427.618 23.2159 428.218 22.1397 429.418 19.9874L430.511 18.0279Z" stroke="white" stroke-width="5"/>
</svg>
